<?xml version="1.0" standalone="no"?>
<!DOCTYPE svg PUBLIC "-//W3C//DTD SVG 20010904//EN"
 "http://www.w3.org/TR/2001/REC-SVG-20010904/DTD/svg10.dtd">
<svg version="1.0" xmlns="http://www.w3.org/2000/svg"
 width="512.000000pt" height="512.000000pt" viewBox="0 0 512.000000 512.000000"
 preserveAspectRatio="xMidYMid meet">
<metadata>
Created by potrace 1.11, written by Peter Selinger 2001-2013
</metadata>
<g transform="translate(0.000000,512.000000) scale(0.100000,-0.100000)"
fill="#000000" stroke="none">
<path d="M1560 4680 l0 -440 -432 -2 -433 -3 -3 -2118 -2 -2117 1870 0 1870 0
0 2560 0 2560 -1435 0 -1435 0 0 -440z m2000 -1000 l0 -190 -1000 0 -1000 0 0
190 0 190 1000 0 1000 0 0 -190z m-252 -560 l252 0 0 -185 0 -185 -248 0
c-137 0 -587 -3 -1000 -7 l-752 -6 0 190 c0 104 3 193 8 198 4 4 340 5 747 1
407 -3 854 -6 993 -6z"/>
</g>
</svg>
