<svg xmlns="http://www.w3.org/2000/svg" viewBox="0 0 1024 1024"><path d="M446.245 920.74l-97.593-28.318c-10.239-2.88-15.999-13.599-13.119-23.838l218.383-752.262c2.88-10.239 13.599-15.999 23.838-13.119l97.593 28.318c10.239 2.88 15.999 13.599 13.119 23.838l-218.383 752.262c-3.040 10.239-13.599 16.159-23.838 13.119zM263.859 741.235l69.595-74.234c7.359-7.839 6.879-20.318-1.28-27.518l-144.949-127.51 144.949-127.51c8.159-7.199 8.799-19.678 1.28-27.518l-69.595-74.234c-7.199-7.679-19.358-8.159-27.198-0.8l-230.542 215.984c-8.159 7.519-8.159 20.478 0 27.998l230.542 216.144c7.839 7.359 19.998 7.039 27.198-0.8zM787.339 742.194l230.542-216.144c8.159-7.519 8.159-20.478 0-27.998l-230.542-216.304c-7.679-7.199-19.838-6.879-27.198 0.8l-69.595 74.234c-7.359 7.839-6.879 20.318 1.28 27.518l144.949 127.67-144.949 127.51c-8.159 7.199-8.799 19.678-1.28 27.518l69.595 74.234c7.199 7.839 19.358 8.159 27.198 0.96z" /></svg>
